<?xml version="1.0" encoding="utf-8"?>
<!-- Generator: Adobe Illustrator 19.0.0, SVG Export Plug-In . SVG Version: 6.00 Build 0)  -->
<svg version="1.1" id="Layer_1" xmlns="http://www.w3.org/2000/svg" xmlns:xlink="http://www.w3.org/1999/xlink" x="0px" y="0px"
	 viewBox="-293 239.6 142 117" style="enable-background:new -293 239.6 142 117;" xml:space="preserve">
<style type="text/css">
	.st0{fill:none;}
	.st1{fill:#0066CC;}
</style>
<g>
	<path class="st0" d="M-300,218.3h160v160h-160V218.3z"/>
	<path class="st1" d="M-241.7,350.2v-82h21.5v82.2h-21.5V350.2z M-157.3,286.9h-19.6v33.7c0,3.4,0.1,5.5,0.3,7
		c0.1,1.3,0.7,2.5,1.7,3.5c1,1,2.6,1.5,4.7,1.5l12.2-0.3l1,17.5c-7.1,1.6-12.7,2.5-16.4,2.5c-9.7,0-16.2-2.2-19.6-6.7
		c-3.6-4.4-5.3-12.6-5.3-24.5v-75.8h21.5v22.8h19.6v18.8L-157.3,286.9L-157.3,286.9z M-274,293.2c-3.7,0-6.8-1.3-9.3-3.9
		c-2.4-2.6-3.7-5.8-3.7-9.6c0-3.8,1.3-7,3.6-9.6c2.4-2.6,5.6-3.8,9.3-3.8s6.8,1.3,9.3,3.9c2.4,2.6,3.6,5.8,3.6,9.8
		c0,3.9-1.1,7-3.6,9.6C-267.2,291.8-270.2,293.2-274,293.2L-274,293.2z"/>
</g>
</svg>
